<svg xmlns="http://www.w3.org/2000/svg" viewBox="0 0 420 400"><rect height="100%" width="100%"/><path d="m340 144c0-71.797017-58.20298-130-130-130s-130 58.202983-130 130" fill="#0f0"/><path d="m80 144c-62.178038 35.89851-83.481814 115.40526-47.583302 177.5833s115.405262 83.48182 177.583302 47.5833" fill="#00f"/><path d="m210 369.1666c62.17804 35.89852 141.68479 14.59474 177.5833-47.5833s14.59474-141.68479-47.5833-177.5833" fill="#f00"/><path d="m210 144c-40.22214-23.22226-89.77786-23.22226-130 0 0 46.44453 24.77786 89.36104 65 112.5833" fill="#0ff"/><path d="m145 256.5833c0 46.44453 24.77786 89.36104 65 112.5833 40.22214-23.22226 65-66.13877 65-112.5833" fill="#f0f"/><path d="m275 256.5833c40.22214-23.22226 65-66.13877 65-112.5833-40.22214-23.22226-89.77786-23.22226-130 0" fill="#ff0"/><path d="m210 144c-40.22214 23.22226-65 66.13878-65 112.5833 40.22214 23.22227 89.77786 23.22227 130 0 0-46.44452-24.77786-89.36104-65-112.5833" fill="#fff"/></svg>