<?xml version="1.0" encoding="UTF-8" standalone="no"?>
<!-- Created with Inkscape (http://www.inkscape.org/) -->

<svg
   xmlns:dc="http://purl.org/dc/elements/1.1/"
   xmlns:cc="http://creativecommons.org/ns#"
   xmlns:rdf="http://www.w3.org/1999/02/22-rdf-syntax-ns#"
   xmlns:svg="http://www.w3.org/2000/svg"
   xmlns="http://www.w3.org/2000/svg"
   xmlns:sodipodi="http://sodipodi.sourceforge.net/DTD/sodipodi-0.dtd"
   xmlns:inkscape="http://www.inkscape.org/namespaces/inkscape"
   width="64mm"
   height="64mm"
   viewBox="0 0 64 64"
   version="1.1"
   id="svg8"
   inkscape:version="0.92.4 (5da689c313, 2019-01-14)"
   sodipodi:docname="icon.svg">
  <defs
     id="defs2" />
  <sodipodi:namedview
     id="base"
     pagecolor="#ffffff"
     bordercolor="#666666"
     borderopacity="1.0"
     inkscape:pageopacity="0.0"
     inkscape:pageshadow="2"
     inkscape:zoom="2.8"
     inkscape:cx="160.12729"
     inkscape:cy="72.702599"
     inkscape:document-units="mm"
     inkscape:current-layer="layer1"
     showgrid="false"
     fit-margin-top="0"
     fit-margin-left="0"
     fit-margin-right="0"
     fit-margin-bottom="0" />
  <metadata
     id="metadata5">
    <rdf:RDF>
      <cc:Work
         rdf:about="">
        <dc:format>image/svg+xml</dc:format>
        <dc:type
           rdf:resource="http://purl.org/dc/dcmitype/StillImage" />
        <dc:title></dc:title>
      </cc:Work>
    </rdf:RDF>
  </metadata>
  <g
     inkscape:label="レイヤー 1"
     inkscape:groupmode="layer"
     id="layer1"
     transform="translate(196.7366,-159.71042)">
    <rect
       style="opacity:1;vector-effect:none;fill:#393939;fill-opacity:1;fill-rule:nonzero;stroke:none;stroke-width:3.07859683;stroke-linecap:round;stroke-linejoin:round;stroke-miterlimit:4;stroke-dasharray:none;stroke-dashoffset:0;stroke-opacity:1;paint-order:stroke fill markers"
       id="rect29"
       width="64"
       height="64"
       x="-196.7366"
       y="159.71042" />
    <path
       inkscape:connector-curvature="0"
       id="path16"
       style="font-style:normal;font-variant:normal;font-weight:900;font-stretch:normal;font-size:25.39999962px;line-height:1;font-family:'M+ 1p';-inkscape-font-specification:'M+ 1p Heavy';letter-spacing:0px;word-spacing:0px;writing-mode:lr-tb;fill:#ffffff;fill-opacity:1;stroke:none;stroke-width:0.4072727"
       d="m -188.10083,183.55806 q 5.23916,-3.94891 7.85874,-6.3339 2.61958,-2.42409 3.44064,-3.87072 0.82106,-1.44663 0.82106,-3.08876 0,-2.93236 -3.32335,-2.93236 -2.93236,0 -7.62414,2.93236 l -1.95491,-6.25571 q 1.99401,-1.32933 5.04367,-2.22859 3.04965,-0.89926 5.70833,-0.89926 4.88727,0 7.50685,2.30679 2.65868,2.2677 2.65868,6.29481 0,3.20605 -2.03311,6.09932 -2.0331,2.89326 -7.93693,7.89783 v 0.0782 h 10.16553 v 6.25571 h -20.33106 z" />
    <path
       inkscape:connector-curvature="0"
       id="path18"
       style="font-style:normal;font-variant:normal;font-weight:900;font-stretch:normal;font-size:25.39999962px;line-height:1;font-family:'M+ 1p';-inkscape-font-specification:'M+ 1p Heavy';letter-spacing:0px;word-spacing:0px;writing-mode:lr-tb;fill:#ffffff;fill-opacity:1;stroke:none;stroke-width:0.4072727"
       d="m -143.48369,186.76412 q -2.89327,3.44064 -8.83619,3.44064 -5.94292,0 -8.83619,-3.44064 -2.89326,-3.44064 -2.89326,-11.22118 0,-7.78054 2.89326,-11.22118 2.89327,-3.44064 8.83619,-3.44064 5.94292,0 8.83619,3.44064 2.89327,3.44064 2.89327,11.22118 0,7.78054 -2.89327,11.22118 z m -11.69036,-4.3008 q 0.89926,1.87671 2.85417,1.87671 1.95491,0 2.81507,-1.87671 0.89926,-1.91582 0.89926,-6.92038 0,-5.00457 -0.89926,-6.88128 -0.86016,-1.91581 -2.81507,-1.91581 -1.95491,0 -2.85417,1.91581 -0.86016,1.87671 -0.86016,6.88128 0,5.00456 0.86016,6.92038 z" />
    <path
       inkscape:connector-curvature="0"
       id="path20"
       style="font-style:normal;font-variant:normal;font-weight:900;font-stretch:normal;font-size:25.39999962px;line-height:1;font-family:'M+ 1p';-inkscape-font-specification:'M+ 1p Heavy';letter-spacing:0px;word-spacing:0px;writing-mode:lr-tb;fill:#ffffff;fill-opacity:1;stroke:none;stroke-width:0.4072727"
       d="m -180.47668,202.59966 h -0.0391 l -5.82563,5.47375 -2.34589,-6.64669 8.21062,-7.81964 h 8.21062 v 28.54167 h -8.21062 z" />
    <path
       inkscape:connector-curvature="0"
       id="path22"
       style="font-style:normal;font-variant:normal;font-weight:900;font-stretch:normal;font-size:25.39999962px;line-height:1;font-family:'M+ 1p';-inkscape-font-specification:'M+ 1p Heavy';letter-spacing:0px;word-spacing:0px;writing-mode:lr-tb;fill:#ffffff;fill-opacity:1;stroke:none;stroke-width:0.4072727"
       d="m -156.2297,203.18614 q 0,2.1113 1.01656,3.32334 1.05565,1.17295 2.89326,1.17295 1.83762,0 2.85417,-1.17295 1.05565,-1.21204 1.05565,-3.32334 0,-2.1504 -1.05565,-3.32335 -1.05565,-1.17294 -2.85417,-1.17294 -1.79852,0 -2.85417,1.17294 -1.05565,1.17295 -1.05565,3.32335 z m 3.90982,-9.97004 q 5.27826,0 8.28882,2.93236 3.04965,2.93237 3.04965,8.21062 0,8.48431 -4.65268,13.33248 -4.61359,4.84818 -12.55052,4.84818 l -1.36843,-6.25571 q 4.2226,0 6.68579,-1.13385 2.50228,-1.13385 3.71432,-3.51884 l -0.0782,-0.0782 q -2.42409,1.21204 -5.04367,1.21204 -9.38356,0 -9.38356,-9.57905 0,-4.379 3.12785,-7.15497 3.16696,-2.81507 8.21062,-2.81507 z" />
  </g>
</svg>
