<?xml version="1.0" encoding="UTF-8" standalone="no"?>
<!-- Created with Inkscape (http://www.inkscape.org/) -->

<svg
   xmlns:dc="http://purl.org/dc/elements/1.1/"
   xmlns:cc="http://creativecommons.org/ns#"
   xmlns:rdf="http://www.w3.org/1999/02/22-rdf-syntax-ns#"
   xmlns:svg="http://www.w3.org/2000/svg"
   xmlns="http://www.w3.org/2000/svg"
   xmlns:sodipodi="http://sodipodi.sourceforge.net/DTD/sodipodi-0.dtd"
   xmlns:inkscape="http://www.inkscape.org/namespaces/inkscape"
   version="1.1"
   id="svg3791"
   width="1057.334"
   height="648"
   viewBox="0 0 1057.334 648.00002"
   sodipodi:docname="APCLogo.svg"
   inkscape:version="0.92.3 (2405546, 2018-03-11)">
  <metadata
     id="metadata3797">
    <rdf:RDF>
      <cc:Work
         rdf:about="">
        <dc:format>image/svg+xml</dc:format>
        <dc:type
           rdf:resource="http://purl.org/dc/dcmitype/StillImage" />
        <dc:title></dc:title>
      </cc:Work>
    </rdf:RDF>
  </metadata>
  <defs
     id="defs3795" />
  <sodipodi:namedview
     pagecolor="#ffffff"
     bordercolor="#666666"
     borderopacity="1"
     objecttolerance="10"
     gridtolerance="10"
     guidetolerance="10"
     inkscape:pageopacity="0"
     inkscape:pageshadow="2"
     inkscape:window-width="1366"
     inkscape:window-height="715"
     id="namedview3793"
     showgrid="false"
     inkscape:lockguides="false"
     inkscape:snap-center="false"
     inkscape:snap-object-midpoints="true"
     inkscape:snap-bbox="true"
     inkscape:snap-bbox-midpoints="true"
     inkscape:snap-midpoints="true"
     inkscape:snap-intersection-paths="true"
     inkscape:object-paths="true"
     inkscape:snap-smooth-nodes="true"
     inkscape:snap-bbox-edge-midpoints="true"
     inkscape:bbox-nodes="true"
     inkscape:bbox-paths="true"
     inkscape:snap-page="false"
     inkscape:snap-grids="true"
     inkscape:measure-start="1421.11,387.495"
     inkscape:measure-end="1391.24,357.456"
     fit-margin-top="0"
     fit-margin-left="0"
     fit-margin-right="0"
     fit-margin-bottom="0"
     inkscape:zoom="0.25"
     inkscape:cx="484.37212"
     inkscape:cy="213.36343"
     inkscape:window-x="-8"
     inkscape:window-y="-8"
     inkscape:window-maximized="1"
     inkscape:current-layer="svg3791" />
  <path
     style="fill:#000000;stroke-width:1.33333337"
     d="M 978.66597,0 V 272.66406 545.32617 L 714.26567,545.66406 449.86523,546 461.93164,580.98828 474,615.97656 l 252.33397,0.0117 252.332,0.0117 v 16 16 h 26.00003 26 v -16 -16 H 1044 1057.334 V 580.66602 545.33399 H 1044 1030.666 V 272.66602 0 h -26 z m -799.6855,76 -10.64453,31.66602 C 162.48168,125.08268 155.80796,145.03333 153.5039,152 135.55317,206.27674 113.27243,273.47092 92.04883,337.33399 78.27928,378.76732 51.93429,458.043 33.50586,513.50195 15.07745,568.96089 0,614.7169 0,615.1836 c 0,0.46679 22.24012,0.6923 49.42187,0.5 l 49.41992,-0.34961 5.08985,-16 c 2.7993,-8.8 8.52447,-27.1013 12.7207,-40.66797 4.19622,-13.56666 10.4163,-33.51536 13.82227,-44.33203 l 6.1914,-19.66797 h 93.6211 93.61914 l 3.97265,12.71093 c 2.1852,6.99092 11.02845,34.29223 19.65235,60.66797 L 363.21094,616 h 49.67187 49.67188 l -11.4375,-33 c -6.2911,-18.15 -15.80578,-45.89934 -21.14258,-61.66601 -10.9347,-32.30414 -52.11772,-151.55096 -76.66992,-222 -8.945,-25.66667 -21.83965,-63.46667 -28.65625,-84 -6.8166,-20.53333 -18.81075,-55.93464 -26.65235,-78.66797 -7.8417,-22.73334 -15.48297,-44.93203 -16.98047,-49.33203 -1.4975,-4.4 -3.31085,-8.75131 -4.03125,-9.66797 C 275.97937,76.38742 264.41577,76 227.32617,76 Z m 250.35351,0 v 26 26 h 269.33199 269.334 V 102 76 h -269.334 z m -9.83203,6.66602 c -0.2743,0 -3.27557,1.55123 -6.66797,3.44726 l -6.16797,3.44727 V 108.78125 128 H 413.33398 420 v -22.66601 c 0,-12.46666 -0.22375,-22.66797 -0.49805,-22.66797 z M 396.57031,96 c -0.4194,0 -3.41869,1.55792 -6.66602,3.46094 L 384,102.91992 V 115.46094 128 h 6.66601 6.66797 v -16 c 0,-8.8 -0.34427,-16 -0.76367,-16 z m -21.9043,12.07813 -6.33203,3.71289 c -5.9744,3.50234 -6.35683,4.06676 -6.74023,9.96093 L 361.1875,128 h 6.74023 6.73828 v -9.96094 z m -13.33203,30.32031 v 74.5 74.49805 l 10.52735,31.30078 c 8.7797,26.10351 35.7166,104.41752 55.9414,162.63672 l 4.86328,14 0.34766,-59 0.34766,-59 34.98632,-0.0117 c 69.136,-0.0231 94.15074,-3.75663 116.61524,-17.4043 40.23058,-24.44091 58.93958,-71.89501 50.43168,-127.91797 -4.0345,-26.56652 -13.0419,-45.34179 -30.0606,-62.66016 C 589.38849,153.11362 572.1059,144.66331 548,141.30666 c -7.3145,-1.01852 -42.4202,-1.81323 -99,-2.24219 z m 442.75979,0.31055 c -7.25,0.0478 -14.6264,0.51821 -22.0938,1.42968 -48.8693,5.96509 -87.1765,29.69153 -114.9492,71.19532 -23.4551,35.0516 -35.4826,92.2923 -31.3301,149.10546 0.8667,11.85798 2.8192,27.5612 4.3379,34.89454 15.9563,77.04391 66.7508,128.01635 137.5098,137.99414 4.6374,0.65398 17.4316,0.96898 28.4316,0.69921 36.632,-0.89832 65.0935,-9.8881 88.6211,-27.99218 17.1777,-13.21787 35.5344,-37.19642 44.0801,-57.58203 3.6503,-8.70771 13.2988,-35.74233 13.2988,-37.26172 0,-0.42017 -66.0597,-22.00394 -68.4336,-22.35938 -0.6054,-0.0907 -2.579,4.93464 -4.3847,11.16797 -10.8983,37.61943 -31.4841,60.4052 -60.8223,67.32227 -37.788,8.90929 -77.994,-11.51384 -93.1582,-47.32227 -10.5249,-24.85329 -13.8169,-45.27901 -13.7539,-85.33398 0.052,-33.53828 1.8849,-47.94021 8.7285,-68.59961 5.6619,-17.09216 11.2705,-26.83929 21.1582,-36.77149 10.3036,-10.35002 21.2466,-17.26378 34,-21.48047 12.5327,-4.14376 38.7373,-4.48623 50,-0.65234 24.9668,8.49883 41.7336,25.35392 50.041,50.29883 3.1771,9.53994 3.8311,10.54779 6.3262,9.75586 1.5305,-0.48576 17.4213,-4.65508 35.3125,-9.26563 17.8913,-4.61055 32.7956,-8.64909 33.1211,-8.97461 1.0557,-1.05569 -7.4775,-23.98636 -13.5137,-36.3125 -22.8499,-46.66029 -73.4915,-74.34464 -132.5273,-73.95507 z M 433.33398,202.32422 475,203.04492 c 44.9046,0.77464 49.40288,1.37883 62.27148,8.38282 30.7404,16.73103 34.0887,67.34083 5.875,88.79296 -9.0451,6.8774 -18.37627,9.99474 -35.04297,11.70508 -7.5461,0.77437 -27.45524,1.40821 -44.24414,1.40821 H 433.33398 V 257.83008 Z M 227.125,202.7168 c 0.90229,0.1912 3.09557,5.54539 6.20117,15.2832 2.3389,7.33333 5.97232,18.43269 8.07422,24.66602 2.1019,6.23334 12.28897,37.43399 22.63867,69.33398 25.7616,79.4029 28.2631,87.08792 28.9668,89 0.4853,1.31878 -12.80548,1.66602 -63.67188,1.66602 -50.8689,0 -64.15689,-0.34719 -63.66797,-1.66602 0.76224,-2.0561 10.34807,-32.71652 19.69727,-63 11.3743,-36.84306 30.32427,-97.42124 36.01367,-115.125 2.909,-9.05165 5.28906,-17.42126 5.28906,-18.59961 0,-1.11229 0.15823,-1.62233 0.45899,-1.55859 z m 778.2559,347.95117 a 13.511811,13.511811 0 0 1 5.6914,1.45117 l -18.25973,17.875 a 13.511811,13.511811 0 0 1 -0.8203,-2.18554 13.511811,13.511811 0 0 1 9.37893,-16.64844 13.511811,13.511811 0 0 1 4.0078,-0.49219 z m 11.8183,7.6875 a 13.511811,13.511811 0 0 1 0.8223,2.18555 13.511811,13.511811 0 0 1 -9.3808,16.64843 13.511811,13.511811 0 0 1 -9.70123,-0.96093 z m -12.1914,23.33203 a 13.511811,13.511811 0 0 1 13.5039,13.30274 l -24.29493,-7.89454 a 13.511811,13.511811 0 0 1 10.79103,-5.4082 z m -13.50393,13.71875 24.29693,7.89453 a 13.511811,13.511811 0 0 1 -10.793,5.41016 13.511811,13.511811 0 0 1 -13.50393,-13.30469 z"
     id="path3801"
     inkscape:connector-curvature="0" />
  <g
     inkscape:groupmode="layer"
     id="layer5"
     inkscape:label="Layer 1"
     transform="translate(-402.67383,-317.73828)" />
</svg>
